<svg width="83" height="31" viewBox="0 0 83 31" fill="none" xmlns="http://www.w3.org/2000/svg">
<path fill-rule="evenodd" clip-rule="evenodd" d="M81.4707 8.23556C72.0717 -2.54563 63.7785 0.218778 52.7209 7.40624C43.0454 13.7644 35.858 9.34132 28.6705 12.3822C27.0119 13.2115 24.5239 15.1466 26.7354 17.0817C27.8412 17.911 32.2642 18.7403 33.6464 18.4639C41.1103 16.8052 43.3219 20.1225 54.6559 17.911C51.3387 20.399 40.5575 18.7403 33.9229 19.5696C28.6705 20.6754 20.1008 16.5288 27.0119 11.8293C23.971 10.4471 21.2066 9.61777 17.8893 9.34132C14.572 6.85336 9.31965 3.81251 6.55525 2.70675C4.34372 1.32454 -1.1851 1.87742 2.40863 5.47115C6.00236 8.78844 15.6778 16.2523 17.6129 17.3581C25.3532 22.0576 32.5407 25.3749 40.0046 29.5215C40.0046 29.5215 42.4926 30.9037 47.4685 28.9686C51.0622 27.31 67.0958 18.4639 70.966 19.8461C73.1775 20.6754 74.2832 21.2283 74.2832 21.2283L81.4707 8.23556Z" stroke="#333B41" stroke-width="1.5"/>
</svg>
