<svg width="18" height="19" viewBox="0 0 18 19" fill="none" xmlns="http://www.w3.org/2000/svg">
<path d="M15.068 2.52903L15.9801 2.26841L16.0232 3.21612C16.171 6.46827 14.7785 10.3664 12.4893 13.4425C11.3023 15.0375 9.84055 16.4545 8.17976 17.4487C9.27293 17.074 10.4759 16.3838 11.693 15.1695C14.9277 11.6792 15.8196 7.24187 16.8558 1.55357C15.8903 1.64022 14.939 1.8564 13.9621 2.13918C13.3211 2.32473 12.6773 2.53641 12.0111 2.75704C11.9707 2.77039 11.9303 2.78378 11.8898 2.7972C11.2724 3.00176 10.6358 3.21269 9.98304 3.40895C4.85442 5.30215 2.07886 7.65951 1.07054 10.3645C0.820185 11.654 0.855097 12.8192 1.29345 13.696L1.33027 13.7696L1.35024 13.8495C1.52356 14.5427 2.22512 15.1847 3.16635 15.7019C4.21757 14.713 4.95042 13.8296 5.67106 12.9124C5.49575 13.0928 5.33194 13.265 5.17698 13.428C5.05122 13.5602 4.93129 13.6863 4.81579 13.8057C4.61948 14.0085 4.42936 14.1985 4.25455 14.3497C4.0972 14.4858 3.87751 14.6584 3.62421 14.7429L3.43526 14.8059L3.23995 14.7668C2.34524 14.5879 1.67269 14.0935 1.39699 13.2664C1.14993 12.5252 1.27276 11.6546 1.56082 10.7804C2.05506 8.84732 3.57082 7.33626 5.8139 6.0545C8.07183 4.76426 11.1837 3.63882 15.068 2.52903Z" stroke="#333B41" stroke-width="1.5"/>
</svg>
