<svg width="16" height="16" viewBox="0 0 16 16" fill="none" xmlns="http://www.w3.org/2000/svg">
<path d="M5.3596 2.36438C3.88338 1.84925 2.59748 1.40053 1.15879 1.13765C1.20808 1.37887 1.25653 1.61748 1.30445 1.8535C1.43496 2.49629 1.56156 3.11985 1.69072 3.72462C1.65487 3.27712 1.64725 2.83822 1.66966 2.4124L1.71944 1.46664L2.62862 1.73182C5.96111 2.7038 8.65383 3.69041 10.6309 4.80475C12.3949 5.799 13.6825 6.94741 14.2883 8.3666C13.4485 6.10593 11.2374 4.16869 6.90649 2.89491L6.89365 2.89113L6.88095 2.88689C6.34547 2.7084 5.84236 2.53284 5.3596 2.36438ZM4.68475 11.3307C4.10009 10.544 3.58498 9.69211 3.15311 8.80908C3.7589 10.2532 4.55813 11.5475 5.71336 12.7027L5.72318 12.7125L5.73263 12.7227C6.36899 13.408 7.00803 13.8996 7.62513 14.2467C6.50461 13.458 5.5136 12.4458 4.68475 11.3307ZM14.4641 11.5154C14.8985 10.6465 14.911 9.81283 14.5015 8.94593C14.7846 9.73236 14.7967 10.5125 14.5112 11.1787C14.205 11.8931 13.5926 12.3875 12.8288 12.5784L12.617 12.6314L12.4098 12.5623C12.3252 12.5341 12.2444 12.4969 12.1683 12.455C12.3424 12.6533 12.5256 12.8555 12.7217 13.0632L12.7415 13.0583C13.7005 12.8185 14.2238 12.4027 14.4073 11.6689L14.4273 11.589L14.4641 11.5154Z" stroke="#333B41" stroke-width="1.5"/>
</svg>
