<svg width="14" height="14" viewBox="0 0 14 14" fill="none" xmlns="http://www.w3.org/2000/svg">
<path d="M9.78169 10.6734C9.45619 11.062 9.10836 11.4323 8.74043 11.7771C8.90692 11.6374 9.07448 11.4844 9.24261 11.317C9.43317 11.1067 9.61254 10.8922 9.78169 10.6734ZM12.9904 1.46285C12.9931 1.44821 12.9958 1.43355 12.9985 1.41889C11.4669 1.71727 9.88985 2.19554 8.11377 2.86156L8.11381 2.86165L8.10268 2.86562C4.62543 4.1075 2.71485 5.50778 1.86394 7.38182C2.44335 6.19218 3.4856 5.22079 4.95432 4.37706C6.66256 3.39573 9.01707 2.54648 12.0761 1.71218L12.9904 1.46285ZM2.91376 11.1641C2.613 11.0638 2.35314 10.9104 2.14005 10.7123C2.32817 11.0575 2.58774 11.3413 2.95052 11.5208C3.05586 11.4112 3.15719 11.3037 3.25515 11.1978C3.22107 11.2009 3.18632 11.2025 3.15094 11.2025H3.02923L2.91376 11.1641Z" stroke="#333B41" stroke-width="1.5"/>
</svg>
