<svg width="9" height="17" viewBox="0 0 9 17" fill="none" xmlns="http://www.w3.org/2000/svg">
<path d="M6.97383 5.26397C6.62436 4.93634 6.27488 4.69607 5.94725 4.52134C5.61962 4.36844 5.2483 4.28107 4.8333 4.28107C4.35277 4.28107 4.00329 4.39028 3.76303 4.58686C3.52277 4.78344 3.39171 5.11108 3.39171 5.54792C3.39171 5.85371 3.52277 6.13766 3.78487 6.33424C4.04698 6.55266 4.35277 6.74924 4.74593 6.94582C5.13909 7.1424 5.55409 7.33898 5.99093 7.5574C6.42778 7.77582 6.84278 8.01609 7.23594 8.32188C7.6291 8.62767 7.93489 8.97715 8.197 9.41399C8.4591 9.85083 8.59016 10.375 8.59016 10.9866C8.59016 11.9258 8.32805 12.734 7.82568 13.4111C7.32331 14.0882 6.53699 14.5251 5.53225 14.7653V16.8185H3.63198V14.8527C3.06408 14.7872 2.4525 14.6343 1.81907 14.3722C1.18565 14.1101 0.639594 13.7824 0.180908 13.3674L1.44776 11.4235C1.95013 11.7948 2.43066 12.0787 2.8675 12.2753C3.32619 12.4719 3.78487 12.5593 4.24356 12.5593C4.78961 12.5593 5.20462 12.4501 5.44488 12.2316C5.70699 12.0132 5.83804 11.6637 5.83804 11.2051C5.83804 10.8556 5.70699 10.5716 5.44488 10.3314C5.18277 10.0911 4.87698 9.87268 4.48382 9.65425C4.09066 9.43583 3.67566 9.21741 3.23882 8.99899C2.80197 8.78057 2.38697 8.51846 1.99381 8.21267C1.60065 7.90688 1.29486 7.5574 1.03275 7.1424C0.770648 6.7274 0.639595 6.24687 0.639595 5.65713C0.639595 4.69607 0.901701 3.88791 1.42591 3.25449C1.95013 2.62106 2.69276 2.20606 3.61013 2.03132V0H5.51041V1.98764C6.14383 2.07501 6.68989 2.27159 7.17041 2.55554C7.65094 2.83949 8.06594 3.18896 8.4591 3.60396L6.97383 5.26397Z" fill="#333B41"/>
</svg>
